# xmcd
#
# Track frame offsets:
# 150
# 15618
# 31625
# 55407
# 84658
# 100918
# 114727
# 133151
# 159839
# 187997
#
# Disc length: 3173 seconds
#
# Revision: 0
# Processed by: cddbd v1.5.2PL0 Copyright (c) Steve Scherf et al.
# Submitted via: Audion 3.0.2 (http://www.panic.com/audion/)
#
DISCID=770c630a
DTITLE=Russ Tippins - Electrickery
DYEAR=1900
DGENRE=
TTITLE0=Freedom
TTITLE1=Little Josephine
TTITLE2=Comeuppance
TTITLE3=She's Gone
TTITLE4=Number Thirteen
TTITLE5=This Building's On Fire
TTITLE6=Chuck It
TTITLE7=Electrickery
TTITLE8=Lawrence
TTITLE9=Indy Boogie
EXTD=
EXTT0=
EXTT1=
EXTT2=
EXTT3=
EXTT4=
EXTT5=
EXTT6=
EXTT7=
EXTT8=
EXTT9=
PLAYORDER=
